<?xml version="1.0"?>
<svg xmlns="http://www.w3.org/2000/svg" xmlns:xlink="http://www.w3.org/1999/xlink" xmlns:svgjs="http://svgjs.com/svgjs" version="1.1" width="512" height="512" x="0" y="0" viewBox="0 0 512 512" style="enable-background:new 0 0 512 512" xml:space="preserve" class=""><g><path xmlns="http://www.w3.org/2000/svg" d="m298.667969 426.667969c0 47.128906-38.207031 85.332031-85.335938 85.332031-47.128906 0-85.332031-38.203125-85.332031-85.332031 0-47.128907 38.203125-85.335938 85.332031-85.335938 47.128907 0 85.335938 38.207031 85.335938 85.335938zm0 0" fill="#ffba4c" data-original="#ffa000" style="" class=""/><path xmlns="http://www.w3.org/2000/svg" d="m213.332031 85.332031c-11.773437 0-21.332031-9.554687-21.332031-21.332031v-42.667969c0-11.773437 9.558594-21.332031 21.332031-21.332031 11.777344 0 21.335938 9.558594 21.335938 21.332031v42.667969c0 11.777344-9.558594 21.332031-21.335938 21.332031zm0 0" fill="#ffba4c" data-original="#ffa000" style="" class=""/><path xmlns="http://www.w3.org/2000/svg" d="m413.417969 360.789062c-32.253907-27.265624-50.75-67.09375-50.75-109.3125v-59.476562c0-82.347656-67.007813-149.332031-149.335938-149.332031-82.324219 0-149.332031 66.984375-149.332031 149.332031v59.476562c0 42.21875-18.496094 82.070313-50.945312 109.503907-8.296876 7.082031-13.054688 17.429687-13.054688 28.351562 0 20.589844 16.746094 37.335938 37.332031 37.335938h352c20.589844 0 37.335938-16.746094 37.335938-37.335938 0-10.921875-4.757813-21.269531-13.25-28.542969zm0 0" fill="#fed28c" data-original="#ffc107" style="" class=""/></g></svg>
